<?xml version="1.0" encoding="iso-8859-1"?>
<!-- Uploaded to: SVG Repo, www.svgrepo.com, Generator: SVG Repo Mixer Tools -->
<svg height="800px" width="800px" version="1.1" id="Layer_1" xmlns="http://www.w3.org/2000/svg" xmlns:xlink="http://www.w3.org/1999/xlink" 
	 viewBox="0 0 512 512" xml:space="preserve">
<g>
	<circle style="fill:#FE834D;" cx="288.681" cy="256" r="8.17"/>
	<circle style="fill:#FE834D;" cx="256" cy="256" r="8.17"/>
	<circle style="fill:#FE834D;" cx="223.319" cy="256" r="8.17"/>
</g>
<g>
	<path style="fill:#4D4D4D;" d="M256,125.277c-4.513,0-8.17-3.658-8.17-8.17V8.17c0-4.512,3.657-8.17,8.17-8.17
		s8.17,3.658,8.17,8.17v108.936C264.17,121.619,260.513,125.277,256,125.277z"/>
	<path style="fill:#4D4D4D;" d="M186.561,143.886c-2.824,0-5.57-1.465-7.083-4.086L125.01,45.458
		c-2.256-3.908-0.917-8.904,2.99-11.161c3.906-2.256,8.906-0.917,11.161,2.99l54.468,94.342c2.256,3.908,0.917,8.904-2.99,11.161
		C189.352,143.533,187.946,143.886,186.561,143.886z"/>
	<path style="fill:#4D4D4D;" d="M135.707,194.725c-1.386,0-2.791-0.353-4.077-1.096l-94.342-54.468
		c-3.908-2.256-5.246-7.253-2.99-11.161c2.254-3.908,7.25-5.249,11.161-2.99l94.342,54.468c3.908,2.256,5.246,7.253,2.99,11.161
		C141.277,193.259,138.531,194.725,135.707,194.725z"/>
</g>
<path style="fill:#EEEEEE;" d="M325.439,143.886c-1.386,0-2.791-0.353-4.077-1.096c-3.908-2.256-5.246-7.253-2.99-11.161
	l54.468-94.342c2.255-3.908,7.25-5.247,11.161-2.99c3.908,2.256,5.246,7.253,2.99,11.161L332.522,139.8
	C331.009,142.42,328.263,143.886,325.439,143.886z"/>
<path style="fill:#DCDCDC;" d="M376.293,194.725c-2.824,0-5.57-1.465-7.083-4.086c-2.256-3.908-0.917-8.904,2.99-11.161
	l94.342-54.468c3.906-2.257,8.906-0.918,11.161,2.99c2.256,3.908,0.917,8.904-2.99,11.161l-94.342,54.468
	C379.084,194.372,377.678,194.725,376.293,194.725z"/>
<g>
	<path style="fill:#4D4D4D;" d="M117.106,264.17H8.17C3.657,264.17,0,260.512,0,256s3.657-8.17,8.17-8.17h108.936
		c4.513,0,8.17,3.658,8.17,8.17S121.62,264.17,117.106,264.17z"/>
	<path style="fill:#4D4D4D;" d="M41.38,388.086c-2.824,0-5.57-1.465-7.083-4.086c-2.256-3.908-0.917-8.904,2.99-11.161
		l94.342-54.468c3.906-2.256,8.906-0.917,11.161,2.99c2.256,3.908,0.917,8.904-2.99,11.16L45.458,386.99
		C44.173,387.733,42.767,388.086,41.38,388.086z"/>
	<path style="fill:#4D4D4D;" d="M132.077,478.798c-1.386,0-2.791-0.353-4.077-1.096c-3.908-2.256-5.246-7.253-2.99-11.161
		l54.468-94.342c2.255-3.908,7.251-5.249,11.161-2.99c3.908,2.256,5.246,7.253,2.99,11.161l-54.468,94.342
		C137.647,477.333,134.901,478.798,132.077,478.798z"/>
	<path style="fill:#4D4D4D;" d="M256,512c-4.513,0-8.17-3.658-8.17-8.17V394.894c0-4.512,3.657-8.17,8.17-8.17s8.17,3.658,8.17,8.17
		V503.83C264.17,508.342,260.513,512,256,512z"/>
</g>
<path style="fill:#737373;" d="M379.922,478.798c-2.824,0-5.57-1.465-7.083-4.086l-54.468-94.342
	c-2.256-3.908-0.917-8.904,2.99-11.161c3.905-2.257,8.906-0.917,11.16,2.99l54.468,94.342c2.256,3.908,0.917,8.904-2.99,11.161
	C382.713,478.445,381.308,478.798,379.922,478.798z"/>
<path style="fill:#969696;" d="M470.62,388.086c-1.386,0-2.791-0.353-4.078-1.096L372.2,332.522
	c-3.908-2.256-5.246-7.253-2.99-11.16c2.254-3.908,7.25-5.247,11.161-2.99l94.342,54.468c3.908,2.256,5.246,7.253,2.99,11.161
	C476.189,386.621,473.442,388.086,470.62,388.086z"/>
<path style="fill:#B9B9B9;" d="M503.83,264.17H394.894c-4.513,0-8.17-3.658-8.17-8.17s3.657-8.17,8.17-8.17H503.83
	c4.513,0,8.17,3.658,8.17,8.17S508.343,264.17,503.83,264.17z"/>
</svg>